<?xml version="1.0" encoding="UTF-8"?>
<svg xmlns="http://www.w3.org/2000/svg" width="165" height="50" viewBox="0 0 165 50" fill="none">
  <g clip-path="url(#clip0_65_43)">
    <mask id="mask0_65_43" style="mask-type:luminance" maskUnits="userSpaceOnUse" x="0" y="0" width="165" height="50">
      <path d="M165 0H0V50H165V0Z" fill="white"></path>
    </mask>
    <g mask="url(#mask0_65_43)">
      <path d="M49.877 41.5878L53.837 40.0756L67.4142 7.27783H68.9227L82.971 40.8317L85.4229 41.5878V42.344H79.4829C77.7858 42.344 76.371 41.9659 75.334 41.2098C74.297 40.4537 73.4485 39.414 72.8827 38.1852L70.337 32.2306H58.5513L55.2513 40.1701L58.9284 41.6824V42.4385H49.7827V41.5878H49.877ZM59.117 30.9073H69.8656L64.4913 17.9584L59.117 30.9073Z" fill="#E9C09D"></path>
      <path d="M93.2488 13.894V40.0754L97.2088 41.5877V42.3438H87.874V41.5877L91.834 40.0754V9.16808L88.817 8.50643V7.75024H94.9459C96.6429 7.75024 97.9629 8.12837 99 8.78994C100.037 9.54614 100.886 10.5858 101.546 11.909L112.294 32.514L120.497 11.909C121.063 10.4913 121.817 9.35711 122.76 8.69546C123.703 8.03382 125.211 7.65576 127.191 7.65576H132.377V8.50643L129.454 9.26255V40.9261L132.377 41.6823V42.4384H118.329V41.5877L121.251 40.8316V13.894L109.654 42.8164H108.146L93.2488 13.894Z" fill="#E9C09D"></path>
      <path d="M144.917 41.4932C143.974 41.0206 143.22 40.4535 142.56 39.8864C142.089 40.6426 141.523 41.3041 140.863 41.8713C140.297 42.3438 139.92 42.5329 139.92 42.5329H138.6V33.1756H140.58C141.051 34.7824 141.806 36.2002 142.654 37.5235C144.634 40.359 147.274 41.7767 150.48 41.7767C152.366 41.7767 153.874 41.2097 155.006 40.0754C156.137 38.9412 156.703 37.4289 156.703 35.5385C156.703 34.4044 156.42 33.4592 155.76 32.6085C155.1 31.7579 154.346 31.0017 153.403 30.3401C152.46 29.6785 151.14 28.8278 149.443 27.8826C147.274 26.6539 145.483 25.5197 144.163 24.5745C142.843 23.6293 141.711 22.3061 140.674 20.8883C139.731 19.376 139.26 17.5802 139.26 15.5953C139.26 13.9885 139.731 12.5707 140.58 11.2474C141.523 9.92421 142.843 8.88451 144.634 8.12839C146.426 7.37222 148.689 6.99414 151.329 6.99414C153.214 6.99414 155.1 7.56122 157.08 8.60092C157.834 8.97906 158.494 9.54615 159.249 10.2078C159.814 9.35712 160.38 8.69548 160.946 8.22286C161.511 7.75025 161.889 7.56122 161.889 7.56122H163.114V16.9185H161.134C160.663 15.3117 160.097 13.894 159.249 12.6653C158.494 11.4365 157.457 10.3968 156.326 9.54615C155.194 8.69548 153.78 8.31742 152.271 8.31742C150.951 8.31742 149.914 8.78995 148.971 9.82966C148.029 10.8694 147.557 12.1926 147.557 13.705C147.557 14.9337 147.934 15.9734 148.594 17.013C149.254 17.9582 150.197 18.8089 151.234 19.565C152.271 20.3211 153.686 21.1718 155.477 22.2115C157.551 23.4403 159.249 24.48 160.474 25.3306C161.794 26.2758 162.831 27.41 163.774 28.7332C164.623 30.0565 165.094 31.6633 165.094 33.4592C165.094 35.255 164.623 36.8618 163.586 38.2796C162.549 39.7919 161.04 40.9261 158.966 41.7767C156.891 42.6274 154.44 43.1 151.517 43.1C149.16 43.1 146.897 42.5329 144.917 41.4932Z" fill="#E9C09D"></path>
      <path d="M17.6314 25.0471L12.54 19.8486H5.18571L0 25.0471L5.18571 30.1511H12.54L17.6314 25.0471Z" fill="#E9C09D"></path>
      <path d="M44.7856 19.8486H37.337L32.2456 25.0471L37.337 30.1511H44.7856L49.877 25.0471L44.7856 19.8486Z" fill="#E9C09D"></path>
      <path d="M24.9855 17.6748L30.077 12.5709V19.8488V5.19848L24.9855 0L19.7998 5.19848V12.5709L24.9855 17.6748Z" fill="#E9C09D"></path>
      <path d="M30.077 30.1514V37.5238L24.9855 32.3252L19.7998 37.4292V44.8961L24.9855 50.0001L30.077 44.8961V30.1514Z" fill="#E9C09D"></path>
      <path d="M19.7998 19.8489V12.5711L17.9141 10.6807L16.4998 9.26292L14.6141 7.37256H7.25977V14.6505L9.14547 16.5408L10.6541 17.9586L12.5398 19.8489H19.7998Z" fill="#E9C09D"></path>
      <path d="M37.3372 30.1514H30.0771V37.4292L35.2629 42.7223H42.6171V35.4444L37.3372 30.1514Z" fill="#E9C09D"></path>
      <path d="M19.7998 30.1514H12.5398L7.25977 35.4444V42.7223H14.6141L19.7998 37.4292V30.1514Z" fill="#E9C09D"></path>
      <path d="M35.2629 7.37256L33.4714 9.26292L31.9629 10.6807L30.0771 12.5711V19.8489H37.3372L39.2229 17.9586L40.7314 16.5408L42.6171 14.6505V7.37256H35.2629Z" fill="#E9C09D"></path>
    </g>
  </g>
  <defs>
    <clipPath id="clip0_65_43">
      <rect width="165" height="50" fill="white"></rect>
    </clipPath>
  </defs>
</svg>
