<?xml version="1.0" encoding="UTF-8"?>
<svg xmlns="http://www.w3.org/2000/svg" width="147" height="54" viewBox="0 0 147 54" fill="none">
  <path fill-rule="evenodd" clip-rule="evenodd" d="M47.8626 17.1578V13.3478C45.4334 14.4729 43.1832 15.0099 41.1376 15.0099C37.2509 15.0099 34.9495 12.683 34.9495 8.87298C34.9495 5.0374 37.5066 2.50591 41.5723 2.50591C43.5668 2.50591 45.459 3.01733 47.0955 3.96344L48.3229 0.536982C48.0416 0.613693 47.7859 0.639264 47.5047 0.639264C46.3028 0.639264 44.2828 0 41.7001 0C35.2308 0 31.3696 3.55431 31.3696 9.10312C31.3696 14.2684 35.0774 17.6181 41.0097 17.6181C43.5668 17.6181 45.5613 16.9533 46.8398 16.9533C47.1722 16.9533 47.5047 16.9789 47.8626 17.1578ZM51.2635 5.31868V14.6264C51.2635 15.9305 50.9567 16.6976 50.1384 17.1578H63.384C63.2817 16.7743 63.2561 16.493 63.2561 16.314C63.2561 15.8026 63.742 15.0099 64.2022 13.7058C62.8726 14.6775 61.0059 15.1378 58.5511 15.1378H54.1019V5.34425C54.1019 4.06572 54.4343 3.24746 55.2525 2.81276H50.1129C50.9055 3.22189 51.2635 4.01458 51.2635 5.31868ZM70.7227 11.8647L74.2259 4.52599L77.8825 11.8647H70.7227ZM82.1272 14.7031L76.8341 3.78444C76.7062 3.55431 76.6551 3.37531 76.6551 3.24746C76.6551 3.11961 76.7318 2.96618 76.8341 2.76162H71.9501C72.078 2.99176 72.1291 3.14518 72.1291 3.22189C72.1291 3.37531 72.0524 3.55431 71.9245 3.83558L66.478 14.7031C66.0689 15.5213 65.583 16.3396 64.7904 17.1323H69.5976C69.2652 16.851 69.0606 16.4419 69.0606 15.956C69.0606 15.5725 69.1629 15.2145 69.2908 14.9332L69.751 13.9871H78.8542L79.4167 15.0866C79.519 15.3168 79.6213 15.6748 79.6213 16.0327C79.6213 16.4419 79.4167 16.7743 79.0843 17.1067H83.866C83.1244 16.4674 82.5875 15.6492 82.1272 14.7031ZM88.0851 9.3844V4.85841H92.7645C95.2705 4.85841 96.4723 5.24196 96.4723 7.13419C96.4723 8.84741 95.2705 9.40997 92.6623 9.40997L88.0851 9.3844ZM88.0851 14.5752V11.4045H90.6933C92.5856 11.4045 93.6595 12.0437 94.8358 13.5013C95.7819 14.6264 96.191 15.6748 96.191 16.3652C96.191 16.6976 96.1399 16.9277 95.8842 17.1323H100.998C99.9243 16.3396 99.285 15.0866 98.3901 13.7058C97.5718 12.4017 96.7791 11.43 95.475 10.8931C98.1088 10.4072 99.5407 8.9497 99.5407 6.90405C99.5407 5.29311 98.7992 4.04015 97.4184 3.34974C96.3956 2.83833 94.8358 2.76162 92.6878 2.76162H84.1217C84.9144 3.19632 85.2468 3.98901 85.2468 5.29311V14.5496C85.2468 15.8537 84.9911 16.6209 84.1217 17.1323H89.2358C88.3664 16.672 88.0851 15.9049 88.0851 14.5752ZM105.652 14.5752V12.8876L109.385 9.97252L113.502 15.0099C114.039 15.6492 114.321 16.1095 114.321 16.493C114.321 16.7743 114.142 17.0044 113.86 17.1578H119.511C118.489 16.5186 117.773 15.7515 117.159 15.0099L111.661 8.20815L116.289 4.55156C117.005 3.98901 117.926 3.40088 119.077 2.78719H113.016C113.247 2.96618 113.374 3.11961 113.374 3.40088C113.374 3.70773 113.119 4.09129 112.582 4.52599L105.652 10.0748V5.36982C105.652 4.09129 105.857 3.2986 106.752 2.78719H101.663C102.481 3.24746 102.788 4.04015 102.788 5.36982V14.5752C102.788 15.8793 102.533 16.6464 101.663 17.1578H106.752C105.831 16.6209 105.652 15.8282 105.652 14.5752ZM119.997 17.1578H135.007C134.905 16.7743 134.879 16.5186 134.879 16.314C134.879 15.8026 135.365 15.0099 135.851 13.7058C134.726 14.5496 132.706 15.1122 130.174 15.1122H123.961V10.7396H130.225C130.89 10.7396 131.376 10.5095 131.683 10.0237L132.68 8.36157C132.067 8.59171 131.453 8.71956 130.762 8.71956H124.012V4.85841H130.021C132.245 4.85841 133.959 5.08854 135.34 5.9068C135.007 4.70498 134.649 3.96344 134.649 3.60545C134.649 3.40088 134.726 3.14518 134.828 2.81276H120.048C120.841 3.24746 121.173 4.04015 121.173 5.34425V14.6519C121.122 15.9305 120.815 16.6976 119.997 17.1578Z" fill="#013362"></path>
  <path fill-rule="evenodd" clip-rule="evenodd" d="M0.403811 46.5386C-3.68748 37.0008 24.031 27.4374 50.8801 25.3662C16.2831 33.4209 5.03208 40.683 9.73706 46.5386C12.5498 50.0418 23.2639 51.1413 35.4355 50.5788C14.4165 55.8463 2.78187 52.0619 0.403811 46.5386Z" fill="#A7A9AC"></path>
  <path fill-rule="evenodd" clip-rule="evenodd" d="M36.3817 39.609V35.799C33.9525 36.9241 31.7023 37.4611 29.6566 37.4611C25.7699 37.4611 23.4686 35.1342 23.4686 31.3242C23.4686 27.4886 26.0256 24.9571 30.0913 24.9571C32.0858 24.9571 33.9781 25.4685 35.6146 26.4146L36.842 22.9882C36.5607 23.0649 36.305 23.0904 36.0237 23.0904C34.8219 23.0904 32.8018 22.4512 30.2192 22.4512C23.7498 22.4512 19.8887 26.0055 19.8887 31.5543C19.8887 36.7195 23.5964 40.0693 29.5288 40.0693C32.0858 40.0693 34.0803 39.4045 35.3589 39.4045C35.6657 39.4045 36.0237 39.43 36.3817 39.609ZM42.6209 30.8127V27.821C42.6209 26.4913 42.9022 25.6986 43.746 25.2384H38.6319C39.5013 25.7242 39.757 26.5169 39.757 27.821V37.0264C39.757 38.3305 39.5013 39.1232 38.6319 39.609H43.746C42.8766 39.1232 42.6209 38.3305 42.6209 37.0264V32.9862H51.3916V37.0264C51.3916 38.3305 51.1103 39.1232 50.2665 39.609H55.3806C54.5112 39.1232 54.2555 38.3305 54.2555 37.0264V27.821C54.2555 26.4913 54.5368 25.7242 55.3806 25.2384H50.2665C51.1103 25.6986 51.3916 26.4913 51.3916 27.821V30.8127H42.6209Z" fill="#013362"></path>
  <path fill-rule="evenodd" clip-rule="evenodd" d="M61.2617 34.316L64.7648 26.9773L68.4214 34.316H61.2617ZM72.6661 37.1543L67.373 26.2357C67.2452 26.0056 67.194 25.8266 67.194 25.6987C67.194 25.5709 67.2707 25.4175 67.373 25.2129H62.489C62.6169 25.443 62.668 25.5964 62.668 25.6732C62.668 25.8266 62.5913 26.0056 62.4635 26.2869L56.9914 37.1543C56.5822 37.9726 56.0964 38.7909 55.3037 39.5835H60.111C59.7786 39.3023 59.574 38.8931 59.574 38.4073C59.574 38.0237 59.6763 37.6658 59.8041 37.3845L60.2644 36.4384H69.3675L69.9301 37.5379C70.0324 37.768 70.1346 38.126 70.1346 38.484C70.1346 38.8931 69.9301 39.2256 69.5977 39.558H74.3793C73.6634 38.9187 73.1264 38.1005 72.6661 37.1543ZM78.5985 32.4749V27.2841H81.9227C84.8377 27.2841 86.2952 27.8211 86.2952 29.8156C86.2952 31.7845 84.8377 32.4749 81.8715 32.4749H78.5985ZM78.5985 37.0265V34.5461H82.1784C86.9601 34.5461 89.3381 32.9863 89.3381 29.7133C89.3381 28.2046 88.6733 26.9773 87.3692 26.159C86.0395 25.2896 84.3774 25.2385 82.1272 25.2385H74.5839C75.3766 25.6732 75.709 26.4658 75.709 27.7444V37.0265C75.709 38.3306 75.4533 39.0977 74.5839 39.6091H79.698C78.9053 39.1233 78.5985 38.3562 78.5985 37.0265ZM94.0687 27.1307L98.9015 38.663C99.0038 38.8931 99.0805 39.0721 99.0805 39.2256C99.0805 39.2767 99.0294 39.4301 98.9527 39.6091H102.302C102.2 39.4046 102.149 39.2767 102.149 39.1744C102.149 39.021 102.226 38.8931 102.302 38.6886L107.263 27.3608V37.0265C107.263 38.1772 107.11 38.9187 106.215 39.6091H111.048C110.178 38.9443 109.999 38.2027 109.999 37.0265V27.8211C109.999 26.4914 110.28 25.6987 111.124 25.2385H105.09C105.192 25.443 105.269 25.5964 105.269 25.7499C105.269 25.8522 105.217 26.0056 105.141 26.2101L100.666 37.0009L96.2933 26.2357C96.191 26.0056 96.1399 25.8266 96.1399 25.6987C96.1399 25.5453 96.191 25.4175 96.2933 25.2385H90.3865C91.2304 25.6987 91.5116 26.4914 91.5116 27.8211V37.0265C91.5116 38.3306 91.2304 39.1233 90.3865 39.6091H95.1938C94.35 39.1233 94.0687 38.3306 94.0687 37.0265V27.1307ZM117.082 34.316L120.585 26.9773L124.268 34.316H117.082ZM128.512 37.1543L123.219 26.2357C123.091 26.0056 123.04 25.8266 123.04 25.6987C123.04 25.5709 123.117 25.4175 123.219 25.2129H118.335C118.463 25.443 118.514 25.5964 118.514 25.6732C118.514 25.8266 118.437 26.0056 118.31 26.2869L112.837 37.1543C112.428 37.9726 111.943 38.7909 111.15 39.5835H115.957C115.625 39.3023 115.42 38.8931 115.42 38.4073C115.42 38.0237 115.522 37.6658 115.65 37.3845L116.111 36.4384H125.214L125.776 37.5379C125.878 37.768 125.955 38.126 125.955 38.484C125.955 38.8931 125.776 39.2256 125.418 39.558H130.2C129.509 38.9187 128.972 38.1005 128.512 37.1543ZM134.035 27.233L141.528 38.7397C141.656 38.9443 141.732 39.0721 141.732 39.1744C141.732 39.2767 141.681 39.4046 141.579 39.5835H146.258C145.977 39.1488 145.926 38.7653 145.926 38.2539V27.7188C145.926 26.6448 145.951 25.8266 147 25.2385H142.244C143.062 25.6732 143.369 26.4914 143.369 27.8211L143.42 37.2566L136.311 26.0056C136.183 25.801 136.107 25.6987 136.107 25.5709C136.107 25.4942 136.158 25.3663 136.235 25.2385H130.456C131.325 25.7243 131.581 26.517 131.581 27.8211V37.0265C131.581 38.3306 131.325 39.1233 130.456 39.6091H135.34C134.419 39.0721 134.24 38.305 134.214 37.0265L134.035 27.233Z" fill="#013362"></path>
</svg>
