<?xml version="1.0" encoding="UTF-8"?>
<svg xmlns="http://www.w3.org/2000/svg" width="157" height="44" viewBox="0 0 157 44" fill="none">
  <g clip-path="url(#clip0_66_68)">
    <path d="M72.5054 16.8462H64.0714C63.5312 16.8422 63.0145 16.6258 62.6339 16.2442C62.2533 15.8627 62.0398 15.3469 62.0398 14.8093V14.4571C62.0398 14.1916 62.0924 13.9287 62.1945 13.6835C62.2965 13.4382 62.4462 13.2153 62.6348 13.0276C62.8235 12.8399 63.0474 12.691 63.2939 12.5894C63.5404 12.4878 63.8046 12.4355 64.0714 12.4355H77.6459V7.65723H64.0714C62.2509 7.65723 60.5049 8.37687 59.2176 9.65783C57.9303 10.9388 57.2071 12.6762 57.2071 14.4877V14.7787C57.2071 16.5903 57.9303 18.3276 59.2176 19.6086C60.5049 20.8896 62.2509 21.6092 64.0714 21.6092H72.5054C72.7777 21.5852 73.0521 21.6178 73.311 21.705C73.57 21.7922 73.8078 21.9321 74.0095 22.1158C74.2111 22.2995 74.3722 22.5229 74.4823 22.7718C74.5925 23.0208 74.6494 23.2898 74.6494 23.5619C74.6494 23.8339 74.5925 24.1029 74.4823 24.3519C74.3722 24.6008 74.2111 24.8243 74.0095 25.0079C73.8078 25.1916 73.57 25.3315 73.311 25.4187C73.0521 25.5059 72.7777 25.5385 72.5054 25.5145H53.8674C53.3312 25.5145 52.8168 25.3036 52.4363 24.9278C52.0557 24.552 51.8399 24.0418 51.8358 23.5083V8.19325H47.0493V23.5083C47.0693 25.3015 47.7941 27.0156 49.0684 28.2836C50.3427 29.5517 52.0653 30.2729 53.8674 30.2928H72.1515C73.8893 30.3256 75.578 29.7183 76.8932 28.5876C78.2085 27.4569 79.0575 25.8825 79.2773 24.1668C79.3538 23.2352 79.2356 22.2979 78.9301 21.414C78.6246 20.53 78.1385 19.7187 77.5023 19.0309C76.8661 18.3432 76.0937 17.7941 75.2337 17.4181C74.3737 17.042 73.4448 16.8474 72.5054 16.8462Z" fill="#1D1D1B"></path>
    <path d="M150.197 7.82562H128.189C126.368 7.82562 124.622 8.54526 123.335 9.82623C122.048 11.1072 121.325 12.8446 121.325 14.6561V23.8451C121.321 24.38 121.105 24.8919 120.725 25.2702C120.345 25.6484 119.831 25.8627 119.293 25.8667H116.015V25.7901V14.6561C116.015 12.8446 115.292 11.1072 114.004 9.82623C112.717 8.54526 110.971 7.82562 109.151 7.82562H94.6525V12.5733H109.089C109.36 12.5752 109.629 12.6309 109.878 12.737C110.128 12.8432 110.354 12.9976 110.543 13.1915C110.732 13.3853 110.88 13.6146 110.98 13.8661C111.079 14.1175 111.127 14.3861 111.121 14.6561V16.1876H101.07C99.2499 16.1876 97.504 16.9073 96.2167 18.1882C94.9294 19.4692 94.2062 21.2065 94.2062 23.0181V25.6523L94.1293 25.7289H90.8049C90.2647 25.7248 89.748 25.5084 89.3674 25.1269C88.9868 24.7453 88.7733 24.2295 88.7733 23.692V0.658203H83.9868V23.7992C83.9868 25.6028 84.7036 27.3332 85.981 28.6129C87.2583 29.8925 88.9924 30.6175 90.8049 30.6297H119.293C120.198 30.6357 121.096 30.4635 121.934 30.123C122.772 29.7824 123.534 29.2802 124.177 28.6454C124.819 28.0105 125.329 27.2555 125.676 26.4237C126.024 25.592 126.203 24.7 126.203 23.7992V14.6102C126.207 14.0753 126.423 13.5634 126.803 13.1851C127.183 12.8069 127.697 12.5926 128.235 12.5886H136.931V12.6652V30.354H141.64V12.7111V12.6345H149.92C150.458 12.6385 150.972 12.8528 151.352 13.2311C151.733 13.6093 151.948 14.1212 151.952 14.6561V30.3387H156.569H156.646V14.5949C156.642 12.8008 155.924 11.0814 154.649 9.81275C153.374 8.54415 151.646 7.82967 149.843 7.82562M98.6849 23.1406C98.6889 22.6057 98.9042 22.0938 99.2844 21.7156C99.6645 21.3373 100.179 21.1231 100.716 21.119H110.705V21.1956V25.7901V25.8667H99.1004C99.1004 25.8667 99.1004 25.8667 99.1004 25.7901L98.6849 23.1406Z" fill="#1D1D1B"></path>
    <path d="M47.0645 2.71051C47.0615 3.17157 47.1961 3.62313 47.4513 4.00796C47.7065 4.39279 48.0707 4.69354 48.4979 4.87208C48.9251 5.05063 49.396 5.09892 49.8508 5.01083C50.3056 4.92275 50.7238 4.70225 51.0526 4.37731C51.3813 4.05237 51.6056 3.63762 51.6971 3.18564C51.7886 2.73366 51.7432 2.26482 51.5666 1.83856C51.39 1.4123 51.0902 1.04783 50.7052 0.791357C50.3201 0.534882 49.8672 0.397959 49.4039 0.397949C48.7861 0.397936 48.1934 0.641091 47.7551 1.07435C47.3168 1.5076 47.0686 2.09578 47.0645 2.71051Z" fill="#1D1D1B"></path>
    <path d="M65.5024 37.6135C65.1896 37.5966 64.8771 37.6513 64.589 37.7734C64.3008 37.8955 64.0446 38.0818 63.8402 38.318C63.3992 38.8617 63.1795 39.5504 63.2246 40.2477C63.1942 40.9312 63.3947 41.6051 63.794 42.1621C63.9993 42.4062 64.2597 42.5987 64.5539 42.7237C64.8481 42.8488 65.1678 42.903 65.487 42.8819C65.7606 42.8799 66.0335 42.8543 66.3027 42.8053C66.5574 42.7585 66.8092 42.6972 67.0568 42.6215V43.326C66.8127 43.4205 66.5602 43.4923 66.3027 43.5404C65.9901 43.5594 65.6765 43.5594 65.3639 43.5404C64.7816 43.5619 64.2052 43.4185 63.7017 43.1269C63.2521 42.8506 62.8978 42.4446 62.6859 41.963C62.4591 41.3931 62.3492 40.7839 62.3627 40.1711C62.3441 39.5747 62.4653 38.9822 62.7167 38.4405C62.9465 37.9473 63.3224 37.5358 63.794 37.2613C64.3113 36.9606 64.9037 36.8119 65.5024 36.8324C66.1297 36.8149 66.7522 36.9461 67.3185 37.2153L66.9799 37.9045C66.7648 37.8087 66.5438 37.7268 66.3181 37.6595C66.0529 37.5842 65.7781 37.5481 65.5024 37.5522" fill="#1D1D1B"></path>
    <path d="M79.0001 36.9854V39.6808H75.7681V36.9854H74.937V43.5095H75.7681V40.5231H79.0001V43.5095H79.8312V36.9854H79.0001Z" fill="#1D1D1B"></path>
    <path d="M92.0669 43.5099L91.2973 41.519H88.7271L87.9576 43.5099H87.1265L89.6813 36.9551H90.4355L92.9903 43.5099H92.0669ZM91.0357 40.7532L90.2969 38.7776L90.2046 38.5172C90.1545 38.3874 90.1134 38.2544 90.0815 38.119C90.0445 38.0137 90.0137 37.9063 89.9891 37.7974C89.9891 37.9965 89.8814 38.1803 89.8352 38.3641C89.789 38.5478 89.7429 38.6857 89.6967 38.7776L88.9579 40.7532H91.0357Z" fill="#1D1D1B"></path>
    <path d="M105.334 43.5095H104.379L100.87 38.088C100.87 38.3024 100.87 38.5628 100.87 38.8844C100.87 39.206 100.87 39.5276 100.87 39.8646V43.5095H100.116V36.9854H101.07L104.656 42.3762C104.656 42.2843 104.656 42.1312 104.656 41.9474C104.656 41.7636 104.656 41.5339 104.656 41.3042C104.656 41.0745 104.656 40.86 104.656 40.661V36.9854H105.426L105.334 43.5095Z" fill="#1D1D1B"></path>
    <path d="M118.631 43.5095H117.677L114.168 38.088C114.168 38.3024 114.168 38.5628 114.168 38.8844C114.168 39.206 114.168 39.5276 114.168 39.8646V43.5095H113.414V36.9854H114.368L117.861 42.3762C117.861 42.2843 117.861 42.1312 117.861 41.9474C117.861 41.7636 117.861 41.5339 117.861 41.3042C117.861 41.0745 117.861 40.86 117.861 40.661V36.9854H118.631V43.5095Z" fill="#1D1D1B"></path>
    <path d="M126.742 37.0466V43.4483H130.344V42.7285H127.573L127.496 42.6519V40.5231C127.496 40.5231 127.496 40.5231 127.573 40.5231H130.174V39.8186H127.558V37.7052H130.405V36.9854H126.804L126.742 37.0466Z" fill="#1D1D1B"></path>
    <path d="M138.177 36.9854V43.4483H141.809V42.7132H139.055V36.9854H138.177Z" fill="#1D1D1B"></path>
    <path d="M3.84766 40.2171V40.1406V16.9996C3.84766 16.9077 4.04774 7.50429 16.8835 3.85932C29.7655 7.50429 29.9194 16.6167 29.9194 17.0149V40.1406V40.2171H3.84766ZM31.5508 10.016C28.2418 4.05841 22.0548 1.33234 17.4838 0.107144C17.0843 -0.0259491 16.652 -0.0259491 16.2525 0.107144C11.6353 1.34766 5.47907 4.07373 2.07774 10.0313C0.83088 12.159 0.118147 14.5546 0 17.0149L0 43.9234V43.9999H33.6286V43.9234V17.0302C33.5153 14.5595 32.8024 12.1528 31.5508 10.016Z" fill="#FFCC05"></path>
  </g>
  <defs>
    <clipPath id="clip0_66_68">
      <rect width="157" height="44" fill="white"></rect>
    </clipPath>
  </defs>
</svg>
