<?xml version="1.0" encoding="UTF-8"?>
<svg xmlns="http://www.w3.org/2000/svg" width="144" height="55" viewBox="0 0 144 55" fill="none">
  <path d="M0 19.149H139.849L62.3896 35.6103L0 19.149ZM77.1472 39.5216L102.559 46.2405L139.849 19.173L77.1472 39.5216ZM112.973 48.952L132.386 54.0872L139.825 19.125L112.973 48.952Z" fill="#E76424"></path>
  <path d="M5.30302 0H10.3422L13.6536 11.4221H13.7016L16.0772 0H20.0126L16.4612 16.4853H11.422L8.03856 5.08715H7.99057L5.63896 16.4853H1.70361L5.30302 0Z" fill="#004D71"></path>
  <path d="M29.3707 16.1012C27.955 16.5091 26.4672 16.7491 25.2914 16.7491C21.4041 16.7491 19.3164 14.3734 19.3164 11.4219C19.3404 8.71039 21.1401 4.55908 26.3232 4.55908C29.3707 4.55908 31.6744 6.11882 31.6744 9.62224C31.6744 10.0782 31.5304 11.134 31.3624 11.8299H23.1318C23.1798 13.0777 23.7797 14.0615 26.2513 14.0615C27.3071 14.0615 28.7708 13.7735 29.8986 13.2456L29.3707 16.1012ZM28.3389 9.57425C28.3389 8.32645 27.859 7.27063 26.3712 7.27063C24.6435 7.27063 23.6837 8.44643 23.3957 9.57425H28.3389Z" fill="#004D71"></path>
  <path d="M33.1625 4.84703H34.9862L35.8261 1.22363H39.8334L38.9936 4.84703H42.233L41.7291 7.67856H38.3217L37.6018 10.918C37.4098 11.8059 37.2659 12.3818 37.2659 12.9337C37.2659 13.7256 38.2257 14.1575 39.0416 14.1575C39.4495 14.1575 39.9294 13.9655 40.3373 13.8455L39.8814 16.5811C39.0176 16.7251 38.2017 16.821 37.3858 16.821C35.3222 16.821 33.2585 15.8372 33.2585 13.3656C33.2585 12.7897 33.3545 12.2138 33.6185 10.99L34.3383 7.72655H32.6826L33.1625 4.84703Z" fill="#004D71"></path>
  <path d="M57.9021 16.4852H53.2229L53.1029 8.06263H53.0549L49.0236 16.4852H44.3204L43.2886 4.84717H47.2959L47.3679 13.2698H47.4159L51.2792 4.84717H56.1504L56.1984 13.2698H56.2464L60.0138 4.84717H64.0931L57.9021 16.4852Z" fill="#004D71"></path>
  <path d="M69.3482 16.7491C65.0529 16.7491 63.3252 14.3734 63.3252 11.4219C63.3492 7.31862 66.3007 4.55908 70.8599 4.55908C74.8193 4.55908 76.8829 6.8387 76.8829 9.76621C76.8589 14.6374 73.6915 16.7491 69.3482 16.7491ZM70.644 7.39061C68.7003 7.39061 67.4765 9.50226 67.4765 11.35C67.4765 12.9337 68.2924 13.9655 69.6601 13.9415C71.5318 13.9415 72.7316 12.3578 72.7316 9.74222C72.7316 8.51842 72.2037 7.39061 70.644 7.39061Z" fill="#004D71"></path>
  <path d="M83.386 4.84703L82.9301 7.22264H82.9781C83.626 5.85486 84.9457 4.55908 86.5775 4.55908C87.1054 4.55908 87.7293 4.63107 88.2572 4.87103L87.3214 8.42244C86.8174 8.0385 86.2415 7.94252 85.4737 7.94252C83.7939 7.94252 82.7621 9.43027 82.4742 11.134L81.3223 16.5091H77.291L79.1387 7.91852C79.3547 6.93469 79.5226 5.92685 79.6426 4.89502L83.386 4.84703Z" fill="#004D71"></path>
  <path d="M91.0648 0H95.1441L93.0085 9.74238H93.0565L96.9198 4.87119H101.503L96.6799 10.4623L99.6794 16.4853H95.1921L92.8405 10.7262H92.7925L91.5447 16.4853H87.4414L91.0648 0Z" fill="#004D71"></path>
  <path d="M105.055 0H110.07C113.213 0.023996 116.981 0.11998 116.957 4.1993C116.933 7.00683 114.917 8.59057 112.398 8.90252V8.95051C113.693 9.07049 114.101 10.8222 114.341 11.878L115.493 16.4853H111.366L110.526 12.286C110.118 10.1263 109.446 9.98234 107.478 9.98234H107.022L105.655 16.5093H101.503L105.055 0ZM107.67 6.83886H109.398C111.318 6.83886 112.806 6.38294 112.83 4.7992C112.83 3.6234 112.134 3.11948 110.79 3.09548H108.462L107.67 6.83886Z" fill="#004D71"></path>
  <path d="M124.611 14.8537L124.563 14.8057V14.8537C123.699 16.1975 122.212 16.7494 120.628 16.7494C118.132 16.7494 116.74 15.6456 116.764 13.366C116.788 10.5104 119.644 9.11867 123.195 9.11867C124.011 9.11867 124.803 9.19066 125.379 9.23865C125.427 9.07068 125.427 8.9267 125.427 8.78273C125.427 7.94287 124.611 7.27098 123.291 7.27098C121.828 7.27098 120.868 7.51094 119.524 8.20682L119.932 5.27931C121.108 4.89537 122.38 4.60742 124.203 4.60742C126.987 4.60742 129.242 5.68724 129.218 8.56676C129.218 10.3905 128.187 13.006 127.707 16.5094H124.419L124.611 14.8537ZM121.924 14.0618C123.627 14.0618 124.683 12.886 124.971 11.3023C124.635 11.2303 124.131 11.2303 123.915 11.2303C121.996 11.1583 120.58 11.8542 120.58 12.862C120.58 13.438 121.108 14.0618 121.924 14.0618Z" fill="#004D71"></path>
  <path d="M132.338 4.84719H136.418L133.922 16.4853H129.843L132.338 4.84719ZM133.37 0H137.449L136.802 2.95151H132.722L133.37 0Z" fill="#004D71"></path>
  <path d="M139.92 0H144L140.472 16.4853H136.393L139.92 0Z" fill="#004D71"></path>
</svg>
