<?xml version="1.0" encoding="UTF-8"?>
<svg xmlns="http://www.w3.org/2000/svg" width="259" height="52" viewBox="0 0 259 52" fill="none">
  <g clip-path="url(#clip0_64_25)">
    <path d="M43.2091 21.7312C41.669 21.4381 39.9822 21.2181 38.2952 21.1449C38.442 21.1449 38.5886 21.0716 38.7353 21.0716C42.4024 20.412 45.0427 18.9462 46.5095 16.9674C47.3162 15.7948 47.7563 14.4755 47.7563 13.083C47.7563 11.6172 47.3162 9.93152 46.4362 8.24584C44.676 4.80121 42.7691 3.18883 40.6422 3.18883C38.882 3.18883 37.1951 4.36146 35.5083 6.70675C34.3348 8.31913 33.2347 10.298 32.2812 12.1302C32.7946 10.4445 33.088 8.75887 32.868 7.14649C32.648 5.97384 32.2079 4.87449 31.5479 3.92172C30.8144 2.89567 29.861 2.08948 28.6142 1.42987C27.074 0.623674 25.8273 0.183933 24.6537 0.0373536C23.4803 -0.109226 22.4535 0.183933 21.5734 0.770254C20.1066 1.8696 19.4465 3.99502 19.5932 7.29307C19.6665 9.71164 20.2532 12.3501 20.2532 12.3501C20.4 12.9364 20.5466 13.6693 20.5466 13.9625C18.053 11.1042 15.4861 8.17254 12.259 7.95268C10.5722 7.87938 8.88532 8.539 7.27181 10.0048C3.82476 13.083 3.97144 15.5016 4.70486 17.0406C5.21825 18.0667 6.17169 18.9462 7.49183 19.679C7.93188 19.899 8.44527 20.1188 9.032 20.3387C7.49183 20.2655 6.09835 20.3387 4.99823 20.5586C3.09135 20.8518 1.77119 21.5113 0.891098 22.4641C0.231024 23.2704 -0.0623402 24.1497 0.0110013 25.2491C0.0843427 26.2752 0.451049 27.3746 1.25781 28.6204C2.6513 30.9658 5.36493 32.2116 8.73864 32.2116C8.88532 32.2116 9.032 32.2116 9.17869 32.2116C11.3789 32.1384 13.6525 31.5521 15.706 30.5993C17.833 29.5732 19.2264 27.8876 19.2998 27.8143C19.5932 27.4478 19.5932 27.1546 19.5932 26.9348C19.5198 26.6416 19.2998 26.4218 19.0065 26.2019C18.3464 25.9088 17.6863 25.982 17.2462 26.5683C17.2462 26.5683 16.2929 27.5944 14.6793 28.4006C12.9191 29.2067 10.9389 29.7198 9.10535 29.7932C9.032 29.7932 8.88532 29.7932 8.73864 29.7932C7.27181 29.7932 4.63151 29.5 3.31137 27.3013C2.35793 25.7622 2.21124 24.6628 2.72463 24.0032C3.45805 23.1237 5.43827 22.6839 8.22525 22.6839C8.81198 22.6839 9.47206 22.6839 10.1321 22.7573C13.3592 22.9771 17.0262 23.9299 17.0262 24.0032C17.7596 24.223 18.3464 23.9299 18.6397 23.2704C18.7864 22.9039 18.7864 22.6107 18.6397 22.3176C18.5664 22.0976 18.3464 21.8778 17.9064 21.7312C17.9064 21.7312 17.393 21.5846 16.5128 21.3648C18.273 21.3648 19.6665 21.2181 19.7398 21.2181C20.1799 21.1449 20.4733 20.9983 20.5466 20.7785C20.7666 20.5586 20.7666 20.1921 20.6933 19.8257C20.5466 19.166 20.0332 18.7997 19.2998 18.8729C19.2998 18.8729 17.9064 18.9462 16.2929 18.9462C14.6059 18.9462 13.2124 18.8729 12.1857 18.653C9.39871 18.0667 7.49183 17.1139 6.90511 15.9413C6.68507 15.5016 6.68507 14.9885 6.90511 14.4022C7.19847 13.596 7.85854 12.7165 8.95867 11.7638C10.0588 10.7377 11.1589 10.298 12.1857 10.3712C14.386 10.5178 16.6595 13.083 18.7864 15.5748C20.1066 17.1139 22.0135 18.9462 22.0868 18.9462C22.6735 19.5325 23.5536 19.5325 23.9937 19.0195C23.9937 18.9462 24.067 18.9462 24.067 18.8729C24.5804 19.3127 25.0938 19.0195 25.5339 18.5797C25.9739 18.0667 25.9006 17.2606 25.3139 16.7474L23.7736 14.7687C23.3337 14.109 23.0402 13.596 23.0402 13.4494C23.0402 13.3029 22.8203 12.5699 22.7468 11.8371C22.7468 11.8371 22.2334 9.34519 22.1601 7.14649C22.1601 6.92662 22.1601 6.63346 22.1601 6.41359C22.1601 4.43476 22.5269 3.11553 23.1869 2.60251C23.9937 2.01618 25.5339 2.30934 27.5874 3.40869C29.2742 4.28818 30.301 5.6074 30.5944 7.36635C30.9611 9.49177 30.2277 11.7638 29.5676 13.3029C28.8343 15.0618 27.294 17.1139 27.294 17.1139C26.854 17.7002 26.9274 18.3599 27.4408 18.9462C27.9541 19.4592 28.5409 19.386 29.0542 18.7263C29.1276 18.653 29.5676 17.9934 30.081 17.0406C30.1543 17.2606 30.301 17.4804 30.4478 17.6269C30.9611 18.14 31.5479 18.0667 31.9879 17.4071C31.9879 17.4071 33.0147 15.868 34.1148 13.7425C35.1416 11.7638 36.2417 9.56506 37.4885 7.87939C38.662 6.267 39.7621 5.38753 40.7155 5.38753C41.8156 5.38753 43.0625 6.70675 44.3092 9.12531C45.6294 11.6905 45.7761 13.8159 44.6026 15.355C43.2091 17.2605 40.4222 18.0667 38.3687 18.5064C37.3418 18.7263 35.9484 18.7997 34.2614 18.7997C32.5746 18.7997 31.1078 18.7263 31.1078 18.7263C30.301 18.653 29.7143 19.0927 29.641 19.8257C29.5676 20.1921 29.641 20.4853 29.861 20.7051C30.0077 20.8518 30.301 21.0716 30.8144 21.1449C30.8144 21.1449 31.1811 21.1449 31.7678 21.2181C31.6212 21.3648 31.6212 21.5846 31.6212 21.8045C31.5479 22.1709 31.6212 22.4641 31.8413 22.6839C32.0612 22.9771 32.3547 23.1237 32.7946 23.1237C32.7946 23.1237 33.8214 23.197 35.2882 23.2704C39.5421 23.4902 46.0695 23.7834 47.463 26.3485C47.9764 27.3013 47.7563 28.7671 46.7295 30.5993C46.0695 31.772 45.2627 32.5781 44.3092 33.0179C43.5025 33.3844 42.5491 33.5309 41.449 33.3111C39.4688 32.9446 37.1218 31.6253 35.0682 29.5732C33.2347 27.7409 31.8413 24.8827 31.8413 24.8827C31.4745 24.0765 30.9611 23.9299 30.5944 23.9299C30.5211 23.9299 30.4478 23.9299 30.4478 23.9299C30.4478 22.3908 30.0077 21.1449 29.2009 20.2655C28.1008 19.0927 26.4873 18.7263 24.6537 19.166C23.2602 19.5325 22.9669 20.6318 22.7468 21.2915V21.3648C21.5001 21.6579 20.6199 22.3908 20.1066 23.4169C19.3732 25.1025 19.9599 27.3746 21.5001 28.7671C21.6467 28.9137 21.7934 28.9869 21.9401 29.1335C22.3068 37.6351 21.28 44.3046 18.713 50.241C18.5664 50.6075 18.5664 50.9739 18.6397 51.2672C18.713 51.487 19.0065 51.7068 19.1531 51.8535C19.2998 51.9267 19.5932 52 19.8133 52C19.9599 52 20.0332 52 20.1799 51.9267C20.6199 51.7802 20.7666 51.487 20.9134 51.1938C21.06 50.8274 21.2067 50.4609 21.3534 50.0944L21.4268 49.9479C21.5001 49.9479 21.8668 50.241 22.3068 50.1677C22.6735 50.0944 22.7468 49.9479 22.9669 49.6547C24.5071 47.3095 25.3872 44.5244 25.6805 41.0798C25.9739 38.0016 25.7538 34.6302 25.5339 31.4055L25.4605 30.3062C26.634 30.2328 29.421 29.5732 29.4943 29.5C29.5676 29.4267 30.0077 27.3013 30.1543 26.7149C30.7411 27.9609 31.9146 29.9397 33.3814 31.4055C35.8016 33.7507 38.5886 35.3632 41.0822 35.8029C41.5223 35.8762 41.9624 35.9495 42.4024 35.9495C43.4292 35.9495 44.456 35.7296 45.336 35.2899C46.7295 34.6302 47.9031 33.4576 48.7831 31.8453C50.2499 29.2801 50.47 27.0081 49.5165 25.2491C48.5631 23.5634 46.5095 22.3908 43.2091 21.7312ZM28.3942 24.2964C28.3942 25.1758 28.0275 27.5211 27.8808 27.6677C27.8074 27.8143 23.847 28.5472 22.6735 27.5211C21.7934 26.7149 21.3534 25.3957 21.72 24.5162C21.9401 23.9299 22.6002 23.6367 23.5536 23.6367H24.287V22.9771C24.287 22.9039 24.287 22.7572 24.287 22.6839C24.287 22.3176 24.287 20.925 25.9006 20.8518C26.4873 20.8518 27.2207 21.2915 27.5141 21.7312C28.1008 22.4641 28.3208 23.3436 28.3208 24.0765L28.3942 24.2964Z" fill="#008BCE"></path>
    <path d="M68.8056 22.6107C67.1921 21.2914 65.1385 20.5586 62.5716 20.5586C60.9581 20.5586 59.2712 20.9982 57.4377 21.7312C55.6775 22.5373 54.724 23.3435 54.724 24.2231C54.724 24.6628 54.8706 25.1026 55.0907 25.4689C55.3107 25.8354 55.6041 25.982 55.9709 25.982H56.5576L56.2642 26.2019C55.5308 26.7149 54.8706 27.5944 54.2839 28.8403C53.6972 30.0863 53.4038 31.3322 53.4038 32.5782C53.4038 35.5097 54.1373 37.9282 55.6041 39.614C57.071 41.2996 58.9044 42.1791 61.0314 42.1791C62.8649 42.1791 64.5518 41.5928 66.0186 40.4201C67.5588 39.2475 68.7322 37.4885 69.6857 35.2166C70.6391 32.9445 71.0792 30.5993 71.0792 28.4005C71.1525 25.9087 70.3457 23.9298 68.8056 22.6107ZM66.2386 36.0227C64.9184 38.2947 63.085 39.3941 60.8847 39.3941C59.5646 39.3941 58.5378 38.8078 57.731 37.7084C56.9243 36.6091 56.4843 34.9234 56.4843 32.7247C56.4843 30.7459 57.1443 29.2068 58.5378 28.1075C58.7578 27.8875 58.9044 27.741 58.9044 27.741C58.9044 27.6677 58.9779 27.521 58.9779 27.008C58.9779 26.6416 58.8311 26.3484 58.5378 26.0553C58.2444 25.7621 57.8776 25.6156 57.4377 25.6156H57.2909V25.4689C57.4377 24.7361 58.0244 24.1498 59.0512 23.71C60.078 23.2703 61.1781 23.0503 62.3515 23.0503C64.1851 23.0503 65.5786 23.5635 66.6787 24.5161C67.7055 25.4689 68.2188 26.9347 68.2188 28.767C68.2188 31.4054 67.5588 33.824 66.2386 36.0227Z" fill="#008BCE"></path>
    <path d="M79.0731 29.1337C77.973 29.1337 76.7262 29.5734 75.4061 30.4529L75.2594 30.5995V30.3795C75.2594 29.7932 75.186 29.3535 74.966 28.9871C74.8194 28.6939 74.4526 28.5474 73.8659 28.5474C72.7658 28.5474 72.2524 29.2069 72.2524 30.5995C72.2524 30.8193 72.3258 31.259 72.3991 31.992C72.5457 33.0913 72.6191 33.8242 72.6191 34.2639L72.5457 38.4415L72.6924 42.7656C72.6924 43.1321 72.8392 43.4985 73.0591 43.8649C73.2792 44.2314 73.4992 44.3779 73.7926 44.3779C74.3793 44.3779 74.8194 44.2314 75.1127 43.8649C75.4061 43.5718 75.5527 43.2053 75.5527 42.8389C75.5527 42.2526 75.4794 41.5197 75.4061 40.7135C75.3328 39.834 75.2594 39.1744 75.2594 38.5881L75.3328 33.3112C76.4329 32.1386 77.4596 31.5523 78.5597 31.5523C79.8799 31.5523 80.4666 31.992 80.4666 32.8714C80.4666 33.6044 80.54 34.1174 80.7601 34.3372C80.98 34.5571 81.3468 34.6304 81.9335 34.6304C82.8869 34.6304 83.327 34.1174 83.327 33.0181C83.327 31.7721 83.0336 30.8193 82.5202 30.233C82.1535 29.4269 80.98 29.1337 79.0731 29.1337Z" fill="#008BCE"></path>
    <path d="M91.3234 29.9396C90.6634 29.9396 89.7832 30.0129 88.6831 30.1594H88.5365V30.0129C88.6098 29.28 88.6098 28.9868 88.6098 28.8403C88.6098 28.3273 88.4631 27.9608 88.3164 27.741C88.0964 27.521 87.7297 27.4478 87.143 27.4478C86.5563 27.4478 86.1895 27.5943 86.0429 27.9608C85.8228 28.3273 85.6761 29.3533 85.5295 31.0389V31.1122H85.4561C84.7227 31.4054 84.356 31.8452 84.356 32.5048C84.356 33.2377 84.7227 33.6774 85.3827 33.9706H85.4561V34.0438C85.4561 36.2426 85.6761 39.394 85.9694 43.4983C86.2629 47.6758 86.4095 49.8013 86.4095 50.1676C86.4095 51.1204 86.8496 51.6334 87.803 51.6334C88.7565 51.6334 89.2699 51.1204 89.2699 50.1676C89.2699 48.4087 89.0499 45.8436 88.6098 42.3989V42.179L88.7565 42.2524C89.9299 42.7654 91.3234 42.9852 92.7902 42.9852C94.7705 42.9852 96.5307 42.4722 97.8508 41.5194C99.171 40.5666 99.831 39.3208 99.831 37.7817C99.831 35.7296 99.0977 33.8973 97.5575 32.3582C96.0907 30.7459 93.9637 29.9396 91.3234 29.9396ZM95.7973 39.9803C95.0639 40.4934 94.1104 40.7866 92.8636 40.7866C92.2035 40.7866 91.3967 40.6399 90.5167 40.2736C89.5633 39.9803 88.9031 39.5406 88.3897 39.0276L88.2431 32.7247H88.3164C89.4165 32.4315 90.15 32.2849 90.4433 32.2849C91.8368 32.2849 93.0103 32.5048 93.9637 32.9445C94.9171 33.3843 95.6506 34.0438 96.0907 34.9233C96.5307 35.8029 96.824 36.8289 96.824 38.0015C96.824 38.7345 96.4573 39.394 95.7973 39.9803Z" fill="#008BCE"></path>
    <path d="M111.856 29.7198C110.609 28.767 109.363 28.254 108.042 28.254C107.016 28.254 105.842 28.6937 104.522 29.5731L104.375 29.7198V29.4998L104.962 21.951C104.962 21.2914 104.815 20.8516 104.522 20.4852C104.229 20.1921 103.862 20.0454 103.495 20.0454C102.468 20.0454 101.955 20.7051 101.955 22.0975C101.955 22.1709 101.882 23.3435 101.808 25.6888C101.735 27.9608 101.662 29.9396 101.662 31.4787C101.662 33.1643 101.662 35.5096 101.735 38.368C101.808 41.1529 101.808 42.6921 101.808 42.7654C101.808 43.1318 101.955 43.425 102.175 43.7914C102.395 44.0845 102.615 44.3045 102.835 44.3045C103.349 44.3045 103.789 44.1579 104.155 43.7914C104.522 43.4982 104.669 43.1318 104.669 42.9119C104.669 42.2524 104.595 41.4461 104.522 40.4933C104.449 39.6138 104.375 37.122 104.229 32.8712V32.7979C104.742 32.1382 105.329 31.6252 105.989 31.2589C106.722 30.8924 107.309 30.6726 107.896 30.6726C108.629 30.6726 109.289 31.0389 109.949 31.6986C110.609 32.3582 111.123 33.3842 111.489 34.7035C111.856 36.0226 112.076 38.0748 112.076 40.8598C112.076 40.9331 112.076 41.1529 112.003 41.4461C112.003 41.8859 111.929 42.2524 111.929 42.3989C111.929 42.6921 112.076 42.9852 112.296 43.2784C112.516 43.5715 112.883 43.7182 113.176 43.7182C113.836 43.7182 114.276 43.5715 114.496 43.2784C114.643 43.0585 114.863 42.5455 114.863 41.153C114.863 38.5878 114.643 36.3159 114.13 34.2637C113.983 32.2116 113.103 30.6726 111.856 29.7198Z" fill="#008BCE"></path>
    <path d="M129.68 29.3533C129.68 28.6936 129.533 28.1806 129.313 27.8875C129.02 27.5943 128.507 27.4478 127.774 27.4478C127.187 27.4478 126.747 27.9608 126.454 28.9136L126.38 28.9868L126.307 28.9136C125.354 28.4738 124.546 28.3273 123.74 28.3273C121.393 28.3273 119.559 29.0601 118.166 30.4526C116.772 31.8452 116.112 33.7507 116.112 36.0227C116.112 37.7817 116.699 39.4673 117.799 40.8599C118.899 42.2524 120.145 42.9852 121.54 42.9852C123.3 42.9852 124.913 42.2524 126.38 40.8599L126.6 40.6399V40.9331C126.6 41.1529 126.6 41.4462 126.6 41.8126C126.6 42.3989 126.747 42.8387 126.967 43.1318C127.26 43.425 127.7 43.5715 128.507 43.5715C128.727 43.5715 129.02 43.4983 129.24 43.2784C129.46 43.0585 129.607 42.8387 129.607 42.6188C129.607 42.3257 129.533 41.5194 129.46 40.1269C129.387 38.7345 129.313 37.4885 129.313 36.3892C129.313 36.0959 129.387 35.0699 129.533 33.3843C129.533 31.1855 129.68 29.8663 129.68 29.3533ZM126.454 33.9706C126.454 35.5096 126.014 37.0487 125.133 38.4413C124.253 39.8338 123.08 40.5666 121.76 40.5666C120.807 40.5666 120.072 40.1269 119.559 39.2475C119.046 38.368 118.826 37.1953 118.826 35.8029C118.826 34.4103 119.266 33.2377 120.22 32.2117C121.1 31.2589 122.346 30.7459 123.96 30.7459C124.326 30.7459 124.766 31.0389 125.281 31.552C125.72 32.065 126.087 32.2849 126.38 32.2849H126.454V33.9706Z" fill="#008BCE"></path>
    <path d="M138.113 28.6938C136.72 28.6938 135.474 29.2069 134.227 30.1597L134.08 30.2329L134.007 30.0864C133.787 29.5734 133.494 29.2801 132.979 29.2801C131.879 29.2801 131.366 29.9397 131.366 31.3323C131.366 31.8453 131.586 33.3844 131.953 36.0229C132.173 37.7085 132.319 39.3941 132.319 41.0066C132.319 42.1792 132.319 42.9121 132.319 43.132C132.319 43.2785 132.466 43.5718 132.686 43.8648C132.906 44.1581 133.126 44.3046 133.347 44.3046C133.934 44.3046 134.374 44.1581 134.667 43.7916C134.96 43.4985 135.107 43.132 135.107 42.7655C135.107 42.1059 135.034 41.2997 134.96 40.4202C134.887 39.5408 134.667 37.4153 134.447 34.0441V33.9708H134.52C134.887 33.8974 135.107 33.3844 135.254 32.505V32.4316C135.913 31.4055 136.867 30.8192 137.967 30.8192C138.628 30.8192 139.214 31.1857 139.801 31.9186C140.387 32.6515 140.607 33.3844 140.607 34.0441C140.607 34.9234 140.534 36.0962 140.314 37.562C140.167 38.9545 140.094 40.1271 140.094 40.9332C140.094 41.0066 140.094 41.1532 140.021 41.373C139.948 41.6662 139.948 41.8127 139.948 42.0327C139.948 42.399 140.021 42.7655 140.241 43.0587C140.461 43.3518 140.754 43.4985 141.047 43.4985C141.707 43.4985 142.147 43.3518 142.441 43.0587C142.734 42.7655 142.807 42.1059 142.807 40.9332C142.807 40.1271 142.88 39.0278 143.027 37.7085C143.174 36.316 143.248 35.1434 143.248 34.2639C143.248 32.6515 142.66 31.3323 141.561 30.2329C140.681 29.2069 139.434 28.6938 138.113 28.6938Z" fill="#008BCE"></path>
    <path d="M156.521 30.8921C155.347 30.4524 154.027 30.1592 152.487 30.1592C150.874 30.1592 149.407 30.6722 148.16 31.625C146.913 32.5778 146.327 33.6771 146.327 34.7765C146.327 37.2683 147.573 38.5143 150.14 38.5143L154.32 38.2945C154.687 38.2945 155.054 38.5143 155.054 39.3938C155.054 40.4931 154.614 41.3726 153.66 41.9589C152.707 42.5452 151.461 42.8384 149.92 42.8384C149.407 42.8384 148.893 42.765 148.38 42.5452C147.867 42.3987 147.5 42.1055 147.207 41.8857C146.913 41.6657 146.62 41.2994 146.547 40.9329C146.474 40.6397 146.327 40.4931 146.254 40.3466C146.18 40.2732 145.96 40.1999 145.519 40.1999C144.566 40.1999 144.126 40.7129 144.126 41.8124C144.126 42.8384 144.713 43.6446 145.887 44.2309C147.06 44.8173 148.527 45.1104 150.213 45.1104C152.267 45.1104 154.027 44.5973 155.567 43.6446C157.108 42.6918 157.914 41.3726 157.914 39.6869C157.914 37.0485 156.961 35.8026 154.907 35.8026L150.433 36.0224C150.066 36.0224 149.773 35.8759 149.48 35.6559C149.187 35.4361 149.04 35.0696 149.04 34.7032C149.04 34.1169 149.407 33.5306 150.066 33.0908C150.728 32.651 151.607 32.4312 152.561 32.4312C153.221 32.4312 153.807 32.5045 154.174 32.5778C154.614 32.651 155.054 32.9443 155.64 33.3107C156.375 33.897 156.595 33.9703 156.741 33.9703C157.841 33.9703 158.428 33.4573 158.428 32.2847C158.208 31.8449 157.621 31.4052 156.521 30.8921Z" fill="#008BCE"></path>
    <path d="M169.799 37.6353L169.872 31.3323C169.872 30.0863 169.432 29.4268 168.552 29.4268C167.965 29.4268 167.598 29.5733 167.378 29.8665C167.158 30.1597 167.085 30.5994 167.085 31.1124L166.938 37.6353C166.938 38.588 167.011 39.9805 167.158 41.7395C167.231 42.9121 167.305 43.7916 167.305 44.2314C167.305 44.5978 167.451 44.891 167.745 45.1108C168.038 45.3307 168.406 45.4773 168.846 45.4773C169.725 45.4773 170.165 44.9642 170.165 43.9382C170.165 43.4252 170.092 42.5456 170.019 41.2998C169.872 39.834 169.799 38.588 169.799 37.6353Z" fill="#008BCE"></path>
    <path d="M169.509 19.9727C168.996 19.9727 168.481 20.2659 168.041 20.8522C167.601 21.4385 167.381 22.098 167.381 22.831C167.381 23.5638 167.528 24.1501 167.748 24.5899C167.968 25.0297 168.335 25.1762 168.776 25.1762C169.509 25.1762 170.096 24.9564 170.535 24.4434C170.975 23.9303 171.195 23.2708 171.195 22.3912C171.195 21.585 170.975 20.9987 170.609 20.559C170.315 20.1192 169.949 19.9727 169.509 19.9727Z" fill="#008BCE"></path>
    <path d="M179.257 28.6943C177.863 28.6943 176.617 29.2074 175.37 30.1601L175.223 30.2334L175.15 30.0869C174.93 29.5738 174.637 29.2806 174.124 29.2806C173.023 29.2806 172.509 29.9402 172.509 31.3327C172.509 31.8458 172.729 33.3849 173.096 36.0234C173.316 37.709 173.462 39.3946 173.462 41.007C173.462 42.1797 173.462 42.9126 173.462 43.1325C173.462 43.279 173.609 43.5722 173.829 43.8653C174.049 44.1585 174.27 44.3051 174.49 44.3051C175.077 44.3051 175.517 44.1585 175.81 43.7921C176.103 43.4989 176.25 43.1325 176.25 42.766C176.25 42.1064 176.177 41.3002 176.103 40.4207C176.03 39.5413 175.81 37.4158 175.59 34.0445V33.9712H175.663C176.03 33.8979 176.25 33.3849 176.397 32.5053V32.4321C177.057 31.406 178.01 30.8197 179.111 30.8197C179.771 30.8197 180.357 31.1862 180.944 31.919C181.531 32.652 181.75 33.3849 181.75 34.0445C181.75 34.9239 181.677 36.0967 181.457 37.5625C181.311 38.9549 181.237 40.1276 181.237 40.9337C181.237 41.007 181.237 41.1537 181.164 41.3735C181.091 41.6667 181.091 41.8132 181.091 42.0332C181.091 42.3995 181.237 42.766 181.384 43.0592C181.604 43.3523 181.897 43.4989 182.19 43.4989C182.85 43.4989 183.29 43.3523 183.584 43.0592C183.877 42.766 183.95 42.1064 183.95 40.9337C183.95 40.1276 184.024 39.0283 184.171 37.709C184.318 36.3165 184.391 35.1439 184.391 34.2644C184.391 32.652 183.804 31.3327 182.704 30.2334C181.824 29.2074 180.577 28.6943 179.257 28.6943Z" fill="#008BCE"></path>
    <path d="M209.838 19.9718C209.472 19.9718 209.325 20.0451 209.252 20.0451C209.178 20.0451 209.105 20.1918 209.032 20.6315C208.958 20.9979 208.958 21.6576 208.885 22.4637L208.738 37.4882L208.518 37.1951C206.464 33.8237 204.118 30.379 201.55 26.7879L196.93 20.4849C196.49 19.8986 195.976 19.6055 195.316 19.6055C194.95 19.6055 194.583 19.752 194.29 19.9718C193.997 20.265 193.85 20.6315 193.85 21.2178L193.997 23.1967C193.997 23.3432 193.923 26.2748 193.85 28.6934C193.703 32.2113 193.703 36.0223 193.703 40.0533C193.703 40.2732 193.703 40.713 193.557 41.4458C193.483 42.1055 193.483 42.4719 193.483 42.6185C193.483 43.7179 193.997 44.2309 195.023 44.2309C195.536 44.2309 195.903 44.1576 196.05 43.9377C196.196 43.7179 196.27 43.2781 196.27 42.6185L196.563 24.9556L196.71 25.1755C196.856 25.3953 197.223 25.8351 197.81 26.4946C198.911 27.8139 200.744 30.379 203.237 33.9702C205.658 37.5614 207.491 40.5663 208.445 42.7651C208.738 43.3514 209.105 43.5712 209.618 43.5712C210.205 43.5712 210.645 43.4247 211.011 43.0582C211.305 42.6918 211.525 42.2521 211.525 41.6658C211.525 41.6658 211.525 41.5924 211.378 41.4458C211.231 41.2993 211.231 41.226 211.231 41.1527L211.525 21.6576C211.451 20.5581 210.938 19.9718 209.838 19.9718Z" fill="#008BCE"></path>
    <path d="M222.019 28.4731C220.111 28.4731 218.131 29.4992 216.078 31.4048C214.097 33.3836 213.071 35.509 213.071 37.6344C213.071 39.5399 213.731 41.2256 215.051 42.5448C216.372 43.8641 218.058 44.5969 220.111 44.5969C221.212 44.5969 222.312 44.3771 223.339 44.0106C224.292 43.6441 224.805 43.2777 224.805 42.8379C224.805 42.5448 224.658 42.2516 224.365 41.8852C224.072 41.5188 223.778 41.2988 223.485 41.2988C223.339 41.2988 223.045 41.3722 222.312 41.8119C221.505 42.2516 221.285 42.3249 221.139 42.3249C219.451 42.3249 218.058 41.8119 217.178 40.8592C216.225 39.9064 215.785 38.5871 215.785 37.0481C215.785 36.8281 215.858 36.535 215.932 36.1686L216.005 35.9487L216.152 36.0953C216.225 36.2418 216.738 36.3885 218.865 36.3885C222.092 36.3885 224.292 36.0953 225.466 35.5823C226.639 35.0692 227.153 34.263 227.153 33.2369C227.153 32.2109 226.639 31.0383 225.686 29.939C224.658 29.0594 223.485 28.4731 222.019 28.4731ZM219.158 34.5562C218.498 34.5562 217.838 34.3363 217.178 33.9699L217.105 33.8966L217.178 33.8232C218.645 31.9178 220.184 30.965 221.799 30.965C222.532 30.965 223.119 31.1848 223.632 31.6979C224.145 32.2109 224.365 32.7972 224.365 33.6034C224.365 34.0432 223.852 34.5562 219.158 34.5562Z" fill="#008BCE"></path>
    <path d="M236.164 28.4741C234.257 28.4741 232.277 29.5002 230.224 31.4056C228.243 33.3845 227.216 35.51 227.216 37.6353C227.216 39.5409 227.876 41.2265 229.196 42.5458C230.517 43.8649 232.204 44.5979 234.257 44.5979C235.358 44.5979 236.458 44.378 237.484 44.0116C238.437 43.6451 238.951 43.2786 238.951 42.8389C238.951 42.5458 238.804 42.2526 238.511 41.8861C238.217 41.5197 237.924 41.2998 237.631 41.2998C237.484 41.2998 237.191 41.3731 236.458 41.8128C235.651 42.2526 235.431 42.3259 235.284 42.3259C233.597 42.3259 232.204 41.8128 231.324 40.86C230.37 39.9074 229.93 38.5881 229.93 37.049C229.93 36.8291 230.004 36.536 230.077 36.1695L230.15 35.9497L230.297 36.0963C230.37 36.2428 230.884 36.3893 233.01 36.3893C236.238 36.3893 238.437 36.0963 239.61 35.5832C240.785 35.0702 241.298 34.264 241.298 33.2379C241.298 32.2119 240.785 31.0393 239.832 29.9399C238.804 29.0604 237.631 28.4741 236.164 28.4741ZM233.303 34.5572C232.643 34.5572 231.984 34.3372 231.324 33.9709L231.25 33.8975L231.324 33.8242C232.79 31.9188 234.33 30.966 235.944 30.966C236.678 30.966 237.264 31.1858 237.777 31.6988C238.291 32.2119 238.511 32.7982 238.511 33.6044C238.511 34.0441 237.997 34.5572 233.303 34.5572Z" fill="#008BCE"></path>
    <path d="M257.733 20.4846C257.513 20.1914 257.147 20.1182 256.707 20.1182C255.606 20.1182 255.019 20.7045 255.019 21.9505C255.019 22.9765 254.652 25.395 253.919 29.1328V29.2794L253.773 29.2061C252.746 28.3999 251.646 27.9602 250.545 27.9602C248.125 27.9602 246.146 28.6198 244.605 30.0123C243.065 31.3315 242.258 33.2371 242.258 35.5091C242.258 37.4879 242.918 39.2468 244.238 40.7126C245.558 42.1785 247.026 42.9847 248.639 42.9847C250.325 42.9847 251.866 42.4717 253.113 41.4456L253.259 41.2989V41.812C253.259 42.325 253.406 42.7648 253.773 43.1312C254.139 43.4977 254.579 43.6443 255.166 43.6443C255.386 43.6443 255.679 43.4977 255.899 43.3511C256.12 43.1312 256.267 42.9113 256.267 42.6915L256.12 37.7078C256.12 36.3152 256.267 34.2631 256.487 31.7712C256.707 29.2794 257.073 27.0807 257.513 25.395C257.807 24.0758 258.027 22.8298 258.027 21.584C258.027 21.0709 257.953 20.7045 257.733 20.4846ZM252.233 38.8804C251.353 39.8331 250.252 40.3462 248.859 40.3462C247.905 40.3462 246.952 39.8331 246.219 38.8804C245.411 37.9277 245.045 36.755 245.045 35.5824C245.045 34.0433 245.558 32.7973 246.586 31.7712C247.612 30.7452 248.932 30.2322 250.618 30.2322C250.985 30.2322 251.28 30.3054 251.646 30.5254C251.939 30.7452 252.233 30.9651 252.453 31.2582C252.673 31.5514 252.893 31.8445 253.039 32.1377C253.186 32.4309 253.333 32.5775 253.333 32.724C253.406 32.7973 253.406 33.0172 253.479 33.8966C253.479 34.5563 253.479 34.9961 253.479 35.2892C253.553 36.6817 253.113 37.8543 252.233 38.8804Z" fill="#008BCE"></path>
  </g>
  <defs>
    <clipPath id="clip0_64_25">
      <rect width="259" height="52" fill="white"></rect>
    </clipPath>
  </defs>
</svg>
